<svg xmlns="http://www.w3.org/2000/svg" xmlns:xlink="http://www.w3.org/1999/xlink" width="1920" zoomAndPan="magnify" viewBox="0 0 1440 809.999993" height="1080" preserveAspectRatio="xMidYMid meet" version="1.2"><defs><clipPath id="a3f3a1a718"><path d="M 0 0 L 945 0 L 945 810 L 0 810 Z M 0 0 "/></clipPath><clipPath id="e908799f5e"><path d="M 877.28125 -345.207031 L 944.894531 -303.386719 L -165.25 1491.546875 L -232.863281 1449.726562 Z M 877.28125 -345.207031 "/></clipPath><clipPath id="9c80023f92"><path d="M 877.28125 -345.207031 L 944.894531 -303.386719 L -165.25 1491.546875 L -232.863281 1449.726562 Z M 877.28125 -345.207031 "/></clipPath><clipPath id="688215a8b7"><path d="M 0 0 L 1129 0 L 1129 810 L 0 810 Z M 0 0 "/></clipPath><clipPath id="548b76dfa9"><path d="M 1061.332031 -345.207031 L 1128.945312 -303.386719 L 18.796875 1491.546875 L -48.816406 1449.726562 Z M 1061.332031 -345.207031 "/></clipPath><clipPath id="55a1d0b4d1"><path d="M 1061.332031 -345.207031 L 1128.945312 -303.386719 L 18.796875 1491.546875 L -48.816406 1449.726562 Z M 1061.332031 -345.207031 "/></clipPath><clipPath id="2a43b37388"><path d="M 135 0 L 1313 0 L 1313 810 L 135 810 Z M 135 0 "/></clipPath><clipPath id="0c803a6d7b"><path d="M 1245.53125 -345.207031 L 1313.144531 -303.386719 L 203 1491.546875 L 135.386719 1449.726562 Z M 1245.53125 -345.207031 "/></clipPath><clipPath id="642840696c"><path d="M 1245.53125 -345.207031 L 1313.144531 -303.386719 L 203 1491.546875 L 135.386719 1449.726562 Z M 1245.53125 -345.207031 "/></clipPath><clipPath id="6e3a3567fe"><path d="M 327 0 L 1440 0 L 1440 810 L 327 810 Z M 327 0 "/></clipPath><clipPath id="562120450d"><path d="M 1437.53125 -357.585938 L 1505.144531 -315.769531 L 395 1479.164062 L 327.386719 1437.347656 Z M 1437.53125 -357.585938 "/></clipPath><clipPath id="87bb0681ba"><path d="M 1437.53125 -357.585938 L 1505.144531 -315.769531 L 395 1479.164062 L 327.386719 1437.347656 Z M 1437.53125 -357.585938 "/></clipPath><clipPath id="b55716c180"><path d="M 489 0 L 1440 0 L 1440 810 L 489 810 Z M 489 0 "/></clipPath><clipPath id="471f52a8b4"><path d="M 1599.082031 -321.207031 L 1666.695312 -279.386719 L 556.546875 1515.546875 L 488.933594 1473.726562 Z M 1599.082031 -321.207031 "/></clipPath><clipPath id="f81cdcac6e"><path d="M 1599.082031 -321.207031 L 1666.695312 -279.386719 L 556.546875 1515.546875 L 488.933594 1473.726562 Z M 1599.082031 -321.207031 "/></clipPath><clipPath id="7de8a1c262"><path d="M 0 0 L 201 0 L 201 810 L 0 810 Z M 0 0 "/></clipPath><clipPath id="b227aa7be1"><path d="M 133.214844 -333.207031 L 200.828125 -291.386719 L -909.316406 1503.546875 L -976.929688 1461.726562 Z M 133.214844 -333.207031 "/></clipPath><clipPath id="b13a402f0d"><path d="M 133.214844 -333.207031 L 200.828125 -291.386719 L -909.316406 1503.546875 L -976.929688 1461.726562 Z M 133.214844 -333.207031 "/></clipPath><clipPath id="4cad7dec42"><path d="M 0 0 L 385 0 L 385 810 L 0 810 Z M 0 0 "/></clipPath><clipPath id="a8295b48ee"><path d="M 317.417969 -333.207031 L 385.03125 -291.386719 L -725.117188 1503.546875 L -792.730469 1461.726562 Z M 317.417969 -333.207031 "/></clipPath><clipPath id="27e1a17419"><path d="M 317.417969 -333.207031 L 385.03125 -291.386719 L -725.117188 1503.546875 L -792.730469 1461.726562 Z M 317.417969 -333.207031 "/></clipPath><clipPath id="4ab5105aec"><path d="M 0 0 L 577 0 L 577 810 L 0 810 Z M 0 0 "/></clipPath><clipPath id="1c7de1b4ae"><path d="M 509.417969 -345.585938 L 577.03125 -303.769531 L -533.117188 1491.164062 L -600.730469 1449.347656 Z M 509.417969 -345.585938 "/></clipPath><clipPath id="6761e8e0e9"><path d="M 509.417969 -345.585938 L 577.03125 -303.769531 L -533.117188 1491.164062 L -600.730469 1449.347656 Z M 509.417969 -345.585938 "/></clipPath><clipPath id="8762197054"><path d="M 0 0 L 739 0 L 739 810 L 0 810 Z M 0 0 "/></clipPath><clipPath id="febd000fa0"><path d="M 670.964844 -309.207031 L 738.578125 -267.386719 L -371.566406 1527.546875 L -439.179688 1485.726562 Z M 670.964844 -309.207031 "/></clipPath><clipPath id="1640de367c"><path d="M 670.964844 -309.207031 L 738.578125 -267.386719 L -371.566406 1527.546875 L -439.179688 1485.726562 Z M 670.964844 -309.207031 "/></clipPath><clipPath id="82fbc1534a"><path d="M 681 0 L 1440 0 L 1440 810 L 681 810 Z M 681 0 "/></clipPath><clipPath id="a0b5c741e8"><path d="M 1790.847656 -333.207031 L 1858.460938 -291.386719 L 748.316406 1503.546875 L 680.703125 1461.726562 Z M 1790.847656 -333.207031 "/></clipPath><clipPath id="454de64e90"><path d="M 1790.847656 -333.207031 L 1858.460938 -291.386719 L 748.316406 1503.546875 L 680.703125 1461.726562 Z M 1790.847656 -333.207031 "/></clipPath><clipPath id="87e9a88418"><path d="M 865 0 L 1440 0 L 1440 810 L 865 810 Z M 865 0 "/></clipPath><clipPath id="daff99bd13"><path d="M 1974.898438 -333.207031 L 2042.511719 -291.386719 L 932.363281 1503.546875 L 864.75 1461.726562 Z M 1974.898438 -333.207031 "/></clipPath><clipPath id="c2d82a7168"><path d="M 1974.898438 -333.207031 L 2042.511719 -291.386719 L 932.363281 1503.546875 L 864.75 1461.726562 Z M 1974.898438 -333.207031 "/></clipPath></defs><g id="46d1f99ec7"><g clip-rule="nonzero" clip-path="url(#a3f3a1a718)"><g clip-rule="nonzero" clip-path="url(#e908799f5e)"><g clip-rule="nonzero" clip-path="url(#9c80023f92)"><path style=" stroke:none;fill-rule:nonzero;fill:#822323;fill-opacity:1;" d="M 877.617188 -345.03125 L 944.324219 -303.773438 L -165.824219 1491.164062 L -232.53125 1449.90625 Z M 877.617188 -345.03125 "/></g></g></g><g clip-rule="nonzero" clip-path="url(#688215a8b7)"><g clip-rule="nonzero" clip-path="url(#548b76dfa9)"><g clip-rule="nonzero" clip-path="url(#55a1d0b4d1)"><path style=" stroke:none;fill-rule:nonzero;fill:#822323;fill-opacity:1;" d="M 1061.664062 -345.03125 L 1128.375 -303.773438 L 18.222656 1491.164062 L -48.484375 1449.90625 Z M 1061.664062 -345.03125 "/></g></g></g><g clip-rule="nonzero" clip-path="url(#2a43b37388)"><g clip-rule="nonzero" clip-path="url(#0c803a6d7b)"><g clip-rule="nonzero" clip-path="url(#642840696c)"><path style=" stroke:none;fill-rule:nonzero;fill:#822323;fill-opacity:1;" d="M 1245.867188 -345.03125 L 1312.574219 -303.773438 L 202.425781 1491.164062 L 135.71875 1449.90625 Z M 1245.867188 -345.03125 "/></g></g></g><g clip-rule="nonzero" clip-path="url(#6e3a3567fe)"><g clip-rule="nonzero" clip-path="url(#562120450d)"><g clip-rule="nonzero" clip-path="url(#87bb0681ba)"><path style=" stroke:none;fill-rule:nonzero;fill:#822323;fill-opacity:1;" d="M 1437.867188 -357.410156 L 1504.574219 -316.152344 L 394.425781 1478.785156 L 327.71875 1437.527344 Z M 1437.867188 -357.410156 "/></g></g></g><g clip-rule="nonzero" clip-path="url(#b55716c180)"><g clip-rule="nonzero" clip-path="url(#471f52a8b4)"><g clip-rule="nonzero" clip-path="url(#f81cdcac6e)"><path style=" stroke:none;fill-rule:nonzero;fill:#822323;fill-opacity:1;" d="M 1599.414062 -321.03125 L 1666.125 -279.773438 L 555.972656 1515.164062 L 489.265625 1473.90625 Z M 1599.414062 -321.03125 "/></g></g></g><g clip-rule="nonzero" clip-path="url(#7de8a1c262)"><g clip-rule="nonzero" clip-path="url(#b227aa7be1)"><g clip-rule="nonzero" clip-path="url(#b13a402f0d)"><path style=" stroke:none;fill-rule:nonzero;fill:#822323;fill-opacity:1;" d="M 133.550781 -333.03125 L 200.257812 -291.773438 L -909.890625 1503.164062 L -976.597656 1461.90625 Z M 133.550781 -333.03125 "/></g></g></g><g clip-rule="nonzero" clip-path="url(#4cad7dec42)"><g clip-rule="nonzero" clip-path="url(#a8295b48ee)"><g clip-rule="nonzero" clip-path="url(#27e1a17419)"><path style=" stroke:none;fill-rule:nonzero;fill:#822323;fill-opacity:1;" d="M 317.75 -333.03125 L 384.460938 -291.773438 L -725.691406 1503.164062 L -792.398438 1461.90625 Z M 317.75 -333.03125 "/></g></g></g><g clip-rule="nonzero" clip-path="url(#4ab5105aec)"><g clip-rule="nonzero" clip-path="url(#1c7de1b4ae)"><g clip-rule="nonzero" clip-path="url(#6761e8e0e9)"><path style=" stroke:none;fill-rule:nonzero;fill:#822323;fill-opacity:1;" d="M 509.75 -345.410156 L 576.460938 -304.152344 L -533.691406 1490.785156 L -600.398438 1449.527344 Z M 509.75 -345.410156 "/></g></g></g><g clip-rule="nonzero" clip-path="url(#8762197054)"><g clip-rule="nonzero" clip-path="url(#febd000fa0)"><g clip-rule="nonzero" clip-path="url(#1640de367c)"><path style=" stroke:none;fill-rule:nonzero;fill:#822323;fill-opacity:1;" d="M 671.300781 -309.03125 L 738.007812 -267.773438 L -372.140625 1527.164062 L -438.847656 1485.90625 Z M 671.300781 -309.03125 "/></g></g></g><g clip-rule="nonzero" clip-path="url(#82fbc1534a)"><g clip-rule="nonzero" clip-path="url(#a0b5c741e8)"><g clip-rule="nonzero" clip-path="url(#454de64e90)"><path style=" stroke:none;fill-rule:nonzero;fill:#822323;fill-opacity:1;" d="M 1791.183594 -333.03125 L 1857.890625 -291.773438 L 747.742188 1503.164062 L 681.035156 1461.90625 Z M 1791.183594 -333.03125 "/></g></g></g><g clip-rule="nonzero" clip-path="url(#87e9a88418)"><g clip-rule="nonzero" clip-path="url(#daff99bd13)"><g clip-rule="nonzero" clip-path="url(#c2d82a7168)"><path style=" stroke:none;fill-rule:nonzero;fill:#822323;fill-opacity:1;" d="M 1975.230469 -333.03125 L 2041.941406 -291.773438 L 931.789062 1503.164062 L 865.082031 1461.90625 Z M 1975.230469 -333.03125 "/></g></g></g></g></svg>